<svg width="25" height="25" viewBox="0 0 25 25" fill="none" xmlns="http://www.w3.org/2000/svg">
<path d="M22.227 12.2102C22.227 11.4411 21.6035 10.8176 20.8343 10.8176H13.871V3.85427C13.871 3.08512 13.2475 2.46161 12.4784 2.46161C11.7092 2.46161 11.0857 3.08512 11.0857 3.85427V10.8176H4.12244C3.3533 10.8176 2.72978 11.4411 2.72978 12.2102C2.72978 12.9794 3.3533 13.6029 4.12244 13.6029H11.0857V20.5662C11.0857 21.3353 11.7092 21.9588 12.4784 21.9588C13.2475 21.9588 13.871 21.3353 13.871 20.5662V13.6029H20.8343C21.6035 13.6029 22.227 12.9794 22.227 12.2102Z" fill="white"/>
</svg>
